<svg 
 xmlns="http://www.w3.org/2000/svg"
 xmlns:xlink="http://www.w3.org/1999/xlink"
 width="520px" height="360px">
<path fill-rule="evenodd"  fill="rgb(0, 0, 0)"
 d="M520.000,252.973 C520.000,265.221 516.116,276.582 509.492,285.970 C513.342,295.241 514.194,305.691 511.225,316.031 C503.790,341.923 450.000,360.000 260.000,360.000 C60.000,360.000 16.210,341.923 8.775,316.031 C5.806,305.691 6.658,295.241 10.508,285.970 C3.884,276.582 -0.000,265.221 -0.000,252.973 C-0.000,241.023 3.697,229.916 10.029,220.663 C6.478,210.222 5.902,198.693 9.047,187.276 C12.194,175.848 18.621,166.132 27.074,158.819 C26.458,147.891 28.974,136.672 35.017,126.486 C41.168,116.122 50.094,108.293 60.352,103.362 C62.702,92.780 68.101,82.712 76.555,74.486 C85.011,66.260 95.364,61.018 106.243,58.729 C111.312,48.759 119.354,40.083 130.000,34.105 C140.459,28.232 151.979,25.784 163.201,26.378 C170.724,18.138 180.718,11.868 192.478,8.802 C204.216,5.742 216.072,6.292 226.804,9.752 C236.311,3.595 247.723,-0.000 260.000,-0.000 C272.277,-0.000 283.688,3.595 293.196,9.752 C303.928,6.292 315.784,5.742 327.522,8.802 C339.265,11.864 349.246,18.120 356.766,26.343 C367.999,25.742 379.531,28.190 390.000,34.071 C400.660,40.059 408.710,48.752 413.778,58.741 C424.635,61.037 434.967,66.274 443.407,74.486 C451.857,82.708 457.242,92.774 459.598,103.350 C469.862,108.281 478.795,116.114 484.948,126.486 C490.986,136.666 493.514,147.878 492.899,158.799 C501.363,166.117 507.803,175.838 510.953,187.276 C514.098,198.695 513.522,210.226 509.969,220.668 C516.302,229.918 520.000,241.023 520.000,252.973 Z"/>
<path fill-rule="evenodd"  fill="rgb(23, 144, 204)"
 d="M510.000,252.973 C510.000,264.566 505.815,275.196 498.856,283.552 C503.362,293.383 504.568,304.722 501.481,315.929 C500.073,321.043 493.709,325.473 483.657,329.293 C461.188,340.721 397.153,346.637 331.601,349.002 C308.695,350.266 284.350,350.270 260.000,350.270 C235.650,350.270 211.305,350.266 188.399,349.002 C122.847,346.637 58.812,340.721 36.343,329.293 C26.291,325.473 19.927,321.043 18.519,315.929 C15.432,304.722 16.638,293.383 21.144,283.552 C14.185,275.196 10.000,264.566 10.000,252.973 C10.000,241.380 14.186,230.751 21.145,222.396 C16.638,212.565 15.432,201.225 18.519,190.017 C21.603,178.818 28.472,169.600 37.417,163.280 C35.681,152.652 37.532,141.398 43.494,131.351 C49.454,121.307 58.542,114.121 68.868,110.269 C70.017,99.571 74.796,89.173 83.223,80.974 C91.650,72.775 102.337,68.130 113.332,67.007 C117.291,56.960 124.677,48.117 135.000,42.318 C145.320,36.521 156.877,34.727 167.795,36.413 C174.292,27.704 183.779,21.020 195.295,18.018 C206.805,15.017 218.444,16.197 228.541,20.574 C237.134,13.797 248.077,9.730 260.000,9.730 C271.923,9.730 282.866,13.797 291.459,20.574 C301.556,16.197 313.195,15.017 324.705,18.018 C336.221,21.020 345.708,27.704 352.205,36.413 C363.123,34.727 374.680,36.521 385.000,42.318 C395.323,48.117 402.709,56.960 406.668,67.007 C417.663,68.130 428.350,72.775 436.777,80.974 C445.206,89.175 449.987,99.576 451.139,110.278 C461.461,114.131 470.548,121.310 476.506,131.351 C482.465,141.394 484.318,152.641 482.582,163.264 C491.530,169.586 498.396,178.815 501.481,190.017 C504.568,201.225 503.362,212.565 498.854,222.396 C505.814,230.751 510.000,241.380 510.000,252.973 Z"/>
<path fill-rule="evenodd"  fill="rgb(25, 161, 230)"
 d="M458.784,151.414 C457.585,142.549 452.612,133.933 443.848,127.139 C435.083,120.345 423.968,116.491 412.532,115.561 C408.414,107.239 400.734,99.914 390.000,95.110 C379.266,90.306 367.242,88.813 355.886,90.209 C349.129,82.997 339.265,77.462 327.293,74.976 C315.320,72.489 303.207,73.459 292.704,77.087 C283.769,71.475 272.394,68.108 260.000,68.108 C247.606,68.108 236.231,71.475 227.296,77.087 C216.793,73.459 204.680,72.489 192.707,74.976 C180.735,77.462 170.871,82.997 164.114,90.209 C152.757,88.813 140.734,90.306 130.000,95.110 C119.266,99.914 111.586,107.239 107.468,115.561 C96.032,116.491 84.916,120.345 76.152,127.139 C67.388,133.933 62.415,142.549 61.216,151.414 C55.651,153.069 50.438,155.471 45.838,158.555 C46.242,151.403 48.267,144.234 52.154,137.606 C57.874,127.851 66.597,120.871 76.507,117.128 C77.614,106.735 82.204,96.633 90.294,88.668 C98.384,80.703 108.645,76.184 119.201,75.094 C123.002,65.337 130.092,56.749 140.000,51.117 C149.908,45.485 161.007,43.734 171.490,45.371 C177.727,36.915 186.832,30.426 197.883,27.511 C208.935,24.595 220.116,25.733 229.812,29.986 C238.059,23.407 248.559,19.459 260.000,19.459 C271.441,19.459 281.941,23.407 290.188,29.986 C299.884,25.733 311.065,24.595 322.117,27.511 C333.168,30.426 342.273,36.915 348.510,45.371 C358.993,43.734 370.092,45.485 380.000,51.117 C389.908,56.749 396.998,65.337 400.799,75.094 C411.355,76.184 421.616,80.703 429.706,88.668 C437.796,96.633 442.386,106.735 443.493,117.128 C453.403,120.871 462.126,127.851 467.846,137.606 C471.733,144.234 473.758,151.403 474.162,158.555 C469.562,155.471 464.349,153.069 458.784,151.414 ZM260.000,350.270 C260.002,350.270 260.004,350.270 260.006,350.270 C260.004,350.270 260.002,350.270 260.000,350.270 C259.998,350.270 259.996,350.270 259.994,350.270 C259.996,350.270 259.998,350.270 260.000,350.270 Z"/>
<path fill-rule="evenodd"  fill="rgb(153, 61, 61)"
 d="M410.000,301.622 C393.431,301.622 380.000,292.909 380.000,282.162 C380.000,271.415 393.431,262.703 410.000,262.703 C426.569,262.703 440.000,271.415 440.000,282.162 C440.000,292.909 426.569,301.622 410.000,301.622 ZM110.000,301.622 C93.431,301.622 80.000,292.909 80.000,282.162 C80.000,271.415 93.431,262.703 110.000,262.703 C126.569,262.703 140.000,271.415 140.000,282.162 C140.000,292.909 126.569,301.622 110.000,301.622 Z"/>
<path fill-rule="evenodd"  fill="rgb(0, 0, 0)"
 d="M410.000,155.676 C437.614,155.676 460.000,177.456 460.000,204.324 C460.000,231.192 437.614,252.973 410.000,252.973 C382.386,252.973 360.000,231.192 360.000,204.324 C360.000,177.456 382.386,155.676 410.000,155.676 Z"/>
<path fill-rule="evenodd"  fill="rgb(255, 255, 255)"
 d="M392.500,170.270 C402.165,170.270 410.000,177.894 410.000,187.297 C410.000,196.701 402.165,204.324 392.500,204.324 C382.835,204.324 375.000,196.701 375.000,187.297 C375.000,177.894 382.835,170.270 392.500,170.270 Z"/>
<path fill-rule="evenodd"  fill="rgb(0, 0, 0)"
 d="M110.000,155.676 C137.614,155.676 160.000,177.456 160.000,204.324 C160.000,231.192 137.614,252.973 110.000,252.973 C82.386,252.973 60.000,231.192 60.000,204.324 C60.000,177.456 82.386,155.676 110.000,155.676 Z"/>
<path fill-rule="evenodd"  fill="rgb(255, 255, 255)"
 d="M92.500,170.270 C102.165,170.270 110.000,177.894 110.000,187.297 C110.000,196.701 102.165,204.324 92.500,204.324 C82.835,204.324 75.000,196.701 75.000,187.297 C75.000,177.894 82.835,170.270 92.500,170.270 Z"/>
<path fill-rule="evenodd"  fill="rgb(0, 0, 0)"
 d="M260.000,330.811 C220.000,330.811 180.000,291.892 180.000,252.973 L180.000,252.973 C180.000,242.226 188.954,233.514 200.000,233.514 L320.000,233.514 C331.046,233.514 340.000,242.226 340.000,252.973 L340.000,252.973 C340.000,291.892 300.000,330.811 260.000,330.811 Z"/>
<path fill-rule="evenodd"  fill="rgb(153, 61, 61)"
 d="M250.000,272.432 C272.858,272.432 292.119,287.362 298.081,307.742 C286.678,315.981 273.342,321.081 260.000,321.081 C232.234,321.081 204.488,299.032 194.196,272.432 L250.000,272.432 Z"/>
</svg>